<svg id="app-teams" xmlns="http://www.w3.org/2000/svg" xmlns:xlink="http://www.w3.org/1999/xlink" width="1080" height="1080" viewBox="0 0 1080 1080">
  <defs>
    <linearGradient id="linear-gradient" x1="0.78" y1="0.114" x2="-0.259" y2="1.382" gradientUnits="objectBoundingBox">
      <stop offset="0" stop-color="#f3f2ef"/>
      <stop offset="1" stop-color="#d4d4d4"/>
    </linearGradient>
    <linearGradient id="linear-gradient-2" x1="0.174" y1="1.067" x2="0.826" y2="-0.063" gradientUnits="objectBoundingBox">
      <stop offset="0" stop-color="#5a62c3"/>
      <stop offset="0.5" stop-color="#4d55bd"/>
      <stop offset="1" stop-color="#3940ab"/>
    </linearGradient>
  </defs>
  <rect id="Rectangle_1134" data-name="Rectangle 1134" width="1080" height="1080" fill="none"/>
  <g id="Group_269" data-name="Group 269">
    <path id="Union_513" data-name="Union 513" d="M21470.4-7574.734a221.162,221.162,0,0,1-68.641-68.626C21353.211-7705.57,21319-7855.243,21319-8030s34.211-324.429,82.762-386.639a221.159,221.159,0,0,1,68.625-68.616c62.227-48.539,211.887-82.747,386.615-82.747,174.758,0,324.434,34.213,386.643,82.766a221.183,221.183,0,0,1,68.6,68.6c48.553,62.21,82.764,211.884,82.764,386.639s-34.211,324.428-82.764,386.639a221.176,221.176,0,0,1-68.611,68.607C22181.41-7526.207,22031.746-7492,21857-7492,21682.289-7492,21532.639-7526.2,21470.4-7574.734Z" transform="translate(-21317 8570)" fill="url(#linear-gradient)"/>
    <g id="Microsoft_Office_Teams__2018_present_" data-name="Microsoft_Office_Teams_(2018–present)" transform="translate(240 260.931)">
      <path id="Path_365" data-name="Path 365" d="M1517.025,777.5h154.981a26.511,26.511,0,0,1,26.512,26.511h0V945.179a97.437,97.437,0,0,1-97.437,97.437h-.461a97.437,97.437,0,0,1-97.451-97.423V791.356a13.856,13.856,0,0,1,13.856-13.856Z" transform="translate(-1098.518 -568.198)" fill="#5059c9"/>
      <circle id="Ellipse_324" data-name="Ellipse 324" cx="62.791" cy="62.791" r="62.791" transform="translate(460.465 55.814)" fill="#5059c9"/>
      <circle id="Ellipse_325" data-name="Ellipse 325" cx="90.698" cy="90.698" r="90.698" transform="translate(237.208 0)" fill="#7b83eb"/>
      <path id="Path_366" data-name="Path 366" d="M903.281,777.5H647.459a26.232,26.232,0,0,0-25.577,26.833V965.342a153.663,153.663,0,1,0,306.977,0V804.333A26.232,26.232,0,0,0,903.281,777.5Z" transform="translate(-454.44 -568.198)" fill="#7b83eb"/>
      <path id="Path_367" data-name="Path 367" d="M789.421,777.5v225.628a25.688,25.688,0,0,1-15.907,23.581,24.73,24.73,0,0,1-9.628,1.953H634.259c-1.814-4.6-3.488-9.209-4.884-13.953a169.94,169.94,0,0,1-7.4-49.4V804.291A26.191,26.191,0,0,1,647.514,777.5Z" transform="translate(-454.538 -568.198)" opacity="0.1"/>
      <path id="Path_368" data-name="Path 368" d="M775.469,777.5v239.581a24.724,24.724,0,0,1-1.954,9.628,25.688,25.688,0,0,1-23.581,15.907H640.817c-2.372-4.6-4.6-9.209-6.558-13.953a138.376,138.376,0,0,1-4.884-13.953,169.939,169.939,0,0,1-7.4-49.4V804.291A26.191,26.191,0,0,1,647.514,777.5Z" transform="translate(-454.538 -568.198)" opacity="0.2"/>
      <path id="Path_369" data-name="Path 369" d="M775.472,777.5V989.174a25.73,25.73,0,0,1-25.535,25.535H629.379a169.941,169.941,0,0,1-7.4-49.4V804.291A26.191,26.191,0,0,1,647.518,777.5Z" transform="translate(-454.541 -568.198)" opacity="0.2"/>
      <path id="Path_370" data-name="Path 370" d="M761.514,777.5V989.174a25.73,25.73,0,0,1-25.535,25.535h-106.6a169.939,169.939,0,0,1-7.4-49.4V804.291A26.191,26.191,0,0,1,647.515,777.5Z" transform="translate(-454.539 -568.198)" opacity="0.2"/>
      <path id="Path_371" data-name="Path 371" d="M985.659,440.2v43.953c-2.372.139-4.6.279-6.977.279s-4.6-.139-6.977-.279a76.585,76.585,0,0,1-13.953-2.232,90.7,90.7,0,0,1-62.791-53.3,77.531,77.531,0,0,1-4.465-13.953h69.628A25.632,25.632,0,0,1,985.659,440.2Z" transform="translate(-650.776 -303.04)" opacity="0.1"/>
      <path id="Path_372" data-name="Path 372" d="M983.831,492.036v30a76.58,76.58,0,0,1-13.953-2.233,90.7,90.7,0,0,1-62.791-53.3H958.3A25.632,25.632,0,0,1,983.831,492.036Z" transform="translate(-662.9 -340.919)" opacity="0.2"/>
      <path id="Path_373" data-name="Path 373" d="M983.831,492.036v30a76.58,76.58,0,0,1-13.953-2.233,90.7,90.7,0,0,1-62.791-53.3H958.3A25.632,25.632,0,0,1,983.831,492.036Z" transform="translate(-662.9 -340.919)" opacity="0.2"/>
      <path id="Path_374" data-name="Path 374" d="M969.871,492.035V519.8a90.7,90.7,0,0,1-62.791-53.3h37.256A25.633,25.633,0,0,1,969.871,492.035Z" transform="translate(-662.895 -340.919)" opacity="0.2"/>
      <path id="Path_375" data-name="Path 375" d="M25.577,466.5H281.4a25.577,25.577,0,0,1,25.577,25.577V747.9A25.577,25.577,0,0,1,281.4,773.476H25.577A25.577,25.577,0,0,1,0,747.9V492.077A25.577,25.577,0,0,1,25.577,466.5Z" transform="translate(0 -340.919)" fill="url(#linear-gradient-2)"/>
      <path id="Path_376" data-name="Path 376" d="M454.746,754.858h-51.14V894.114H371.025V754.858h-50.9V727.844H454.746Z" transform="translate(-233.946 -531.909)" fill="#fff"/>
    </g>
  </g>
</svg>
