<svg width="1080" height="1080" viewBox="0 0 1080 1080" fill="none" xmlns="http://www.w3.org/2000/svg">
<path fill-rule="evenodd" clip-rule="evenodd" d="M317.033 598.089C403.215 598.089 473.078 528.226 473.078 442.045C473.078 355.864 403.215 286 317.033 286C230.852 286 160.989 355.864 160.989 442.045C160.989 528.226 230.852 598.089 317.033 598.089ZM273.54 656.238C123.573 656.238 2 777.811 2 927.778C2 1010.74 69.2566 1078 152.222 1078H481.109C564.074 1078 631.331 1010.74 631.331 927.778C631.331 777.811 509.758 656.238 359.79 656.238H273.54Z" fill="url(#paint0_linear_68_8)"/>
<path fill-rule="evenodd" clip-rule="evenodd" d="M909.98 467.524C1009.51 427.541 1078 343.951 1078 247.31C1078 111.829 943.401 2 777.365 2C611.329 2 476.73 111.829 476.73 247.31C476.73 330.813 527.862 404.572 605.972 448.876C627.289 460.967 632.755 491.504 614.161 507.468L537.005 573.713C508.723 597.995 537.761 642.824 571.484 626.942L909.98 467.524Z" fill="url(#paint1_linear_68_8)"/>
<g filter="url(#filter0_f_68_8)">
<path fill-rule="evenodd" clip-rule="evenodd" d="M790.279 142.822C786.184 129.726 767.649 129.726 763.554 142.822L743.948 205.533C742.121 211.377 736.709 215.355 730.586 215.355H666.027C652.596 215.355 646.872 232.434 657.591 240.528L710.736 280.657C715.455 284.22 717.427 290.364 715.662 296.007L695.583 360.231C691.521 373.225 706.517 383.785 717.382 375.581L768.48 336.998C773.473 333.228 780.36 333.228 785.353 336.998L836.451 375.581C847.316 383.785 862.312 373.225 858.249 360.231L838.17 296.007C836.406 290.364 838.377 284.22 843.096 280.657L896.242 240.528C906.961 232.435 901.237 215.355 887.805 215.355H823.247C817.124 215.355 811.711 211.377 809.884 205.533L790.279 142.822Z" fill="black" fill-opacity="0.25"/>
</g>
<path fill-rule="evenodd" clip-rule="evenodd" d="M790.279 124.822C786.184 111.726 767.649 111.726 763.554 124.822L743.948 187.533C742.121 193.377 736.709 197.355 730.586 197.355H666.027C652.596 197.355 646.872 214.435 657.591 222.528L710.736 262.657C715.455 266.22 717.427 272.364 715.662 278.007L695.583 342.231C691.521 355.225 706.517 365.785 717.382 357.581L768.48 318.998C773.473 315.228 780.36 315.228 785.353 318.998L836.451 357.581C847.316 365.785 862.312 355.225 858.249 342.231L838.17 278.007C836.406 272.364 838.377 266.22 843.096 262.657L896.242 222.528C906.961 214.435 901.237 197.355 887.805 197.355H823.247C817.124 197.355 811.711 193.377 809.884 187.533L790.279 124.822Z" fill="white"/>
<defs>
<filter id="filter0_f_68_8" x="619" y="100" width="315.832" height="311.473" filterUnits="userSpaceOnUse" color-interpolation-filters="sRGB">
<feFlood flood-opacity="0" result="BackgroundImageFix"/>
<feBlend mode="normal" in="SourceGraphic" in2="BackgroundImageFix" result="shape"/>
<feGaussianBlur stdDeviation="16.5" result="effect1_foregroundBlur_68_8"/>
</filter>
<linearGradient id="paint0_linear_68_8" x1="134.5" y1="17" x2="520.5" y2="1049" gradientUnits="userSpaceOnUse">
<stop stop-color="#64B5F6"/>
<stop offset="1" stop-color="#1976D2"/>
</linearGradient>
<linearGradient id="paint1_linear_68_8" x1="649" y1="115" x2="741.5" y2="543" gradientUnits="userSpaceOnUse">
<stop stop-color="#FFB700"/>
<stop offset="1" stop-color="#FFA200"/>
</linearGradient>
</defs>
</svg>
